<svg id="Layer_1" data-name="Layer 1" xmlns="http://www.w3.org/2000/svg" viewBox="0 0 1080 1080"><defs><style>.cls-1,.cls-2{fill:#fdfdd0;}.cls-2{fill-rule:evenodd;}</style></defs><title>14b-w</title><path class="cls-1" d="M651.13,461c4,6.71,7.7,13.63,11.72,20.34,7.08,11.86,14.36,23.59,21.45,35.45,2.85,4.78,5.41,9.73,8.45,15.23H614.68L598.1,505.32c-.57-.92-1.2-1.81-1.7-2.77a167.75,167.75,0,0,0-11.07-18.92,164.54,164.54,0,0,1-10.93-18.06c-4.07-7.62-8.78-14.85-12.87-22.44-3.47-6.43-7.54-12.52-11.34-18.77L533,396.07l56.79-34.36"/><path class="cls-1" d="M588.42,532.18c-21.68-36.07-44-73.92-65.87-110.37-6.93,4.12-13.21,7.8-19.43,11.58-6.49,3.93-13,7.83-19.36,12-6,3.94-18.34,10.8-18.34,10.8s4.42,9.71,6.77,13.61c6.42,10.68,13.12,21.21,19.59,31.86,4.2,6.93,8,14.1,12.37,20.93a110.9,110.9,0,0,1,5.27,10.6"/><path class="cls-1" d="M405.45,532.31l-9.1-15.4c19.38-11.28,38.27-23.3,58-34.32l29.09,48.15a6.09,6.09,0,0,1-.39,1c-.16.23-.41.56-.62.56C456.92,532.31,431.43,532.31,405.45,532.31Z"/><path class="cls-1" d="M386.49,560.71h.12a3,3,0,0,1,3.07,2.48,3.45,3.45,0,0,1,.12.83,3.73,3.73,0,0,1-1.3,2.48L361,588a3.25,3.25,0,0,1-2,.71,3,3,0,0,1-3.18-2.36,3.79,3.79,0,0,1-.12-.94q0-15.81,17-22.06A47.53,47.53,0,0,1,386.49,560.71Zm0,59.81a39.09,39.09,0,0,1-20.52-6q-10.14-6.72-10.26-18.63a3.14,3.14,0,0,1,2.36-3.19,3,3,0,0,1,1.06-.23,4,4,0,0,1,1.89.7l27.48,21.59a4.09,4.09,0,0,1,1.3,2.47,3,3,0,0,1-2.24,3.19,3.87,3.87,0,0,1-.95.12Zm19.35-57.92q9.07,2.37,12.62,11.92a21.22,21.22,0,0,1,1.3,7.07,2.33,2.33,0,0,1-2,2.48,1,1,0,0,1-.47.12,3.06,3.06,0,0,1-1.42-.47q-23.94-16.4-24.06-21.24.24-1.65,3.42-1.77A46.14,46.14,0,0,1,405.84,562.6Zm19.34,57.92a39.09,39.09,0,0,1-20.52-6q-10.14-6.72-10.26-18.63a3.14,3.14,0,0,1,2.36-3.19,3,3,0,0,1,1.06-.23,3.94,3.94,0,0,1,1.88.7l27.49,21.59a4.09,4.09,0,0,1,1.3,2.47,3,3,0,0,1-2.25,3.19,3.79,3.79,0,0,1-.94.12Z"/><path class="cls-1" d="M458.46,620.4a39.09,39.09,0,0,1-20.52-6q-10.14-6.72-10.26-18.63a3,3,0,0,1,2.36-3.19,5.65,5.65,0,0,1,.94-.11,4.09,4.09,0,0,1,2,.7l27.49,21.47a4.08,4.08,0,0,1,1.3,2.48,3,3,0,0,1-2.25,3.18,3.79,3.79,0,0,1-.94.12Zm-15.92-53.67a46.81,46.81,0,0,1,10.62-1.89q3.3.12,3.42,1.77-.12,4.85-24.07,21.24a3.7,3.7,0,0,1-1.41.47,2.34,2.34,0,0,1-2.36-1.89,2.21,2.21,0,0,1-.12-.71,20.19,20.19,0,0,1,5.07-13.56A18.27,18.27,0,0,1,442.54,566.73Zm39,10.62q2.84,7.78,2.83,11.32c-.08,1.65-.63,2.52-1.65,2.6q-5.07,0-21.94-20.65c-.39-.55-.78-1.06-1.18-1.53a2.71,2.71,0,0,1-.59-1.53,2.17,2.17,0,0,1,2-2.36,1.87,1.87,0,0,1,.59-.12q14.39.24,19.22,10.5C481.11,576.21,481.35,576.8,481.58,577.35ZM469,620.52h-.12a3,3,0,0,1-3.06-2.48,3.39,3.39,0,0,1-.12-.83,3.55,3.55,0,0,1,1.18-2.47l27.48-21.47a3.31,3.31,0,0,1,2-.71,3,3,0,0,1,3.18,2.36,3.87,3.87,0,0,1,.12,1q0,15.92-17.1,22A45.46,45.46,0,0,1,469,620.52Zm20.29-78.91a17.11,17.11,0,0,1,1.3,6.48q-.12,8.5-8.14,15.81a2.69,2.69,0,0,1-1.77.71,2.59,2.59,0,0,1-2.48-2.36c-.16-3.78-.23-7.27-.23-10.5q0-21.71,3.89-21.82,2.83,0,7.31,11.44A.35.35,0,0,1,489.25,541.61Zm8.85,28.07a17.15,17.15,0,0,1,1.29,6.49q-.12,8.61-8.14,15.92a2.46,2.46,0,0,1-1.65.59,2.17,2.17,0,0,1-2.36-2,.86.86,0,0,1-.11-.36q-.24-5.9-.24-11,0-21.23,3.77-21.35,2.83,0,7.32,11.44A.35.35,0,0,1,498.1,569.68Z"/><path class="cls-1" d="M520.78,565.2q-7.2,9-10,9.08Q509,574,509,570.74q0-7.54,7.31-28.43a2.64,2.64,0,0,1,2.36-1.76,2.59,2.59,0,0,1,2.13,1.29,24.15,24.15,0,0,1,3.89,12.62A17.69,17.69,0,0,1,520.78,565.2Zm-5.43,55.44q-3.9,0-5.54-20.17c-.16-2-.28-3.93-.36-5.9a7.33,7.33,0,0,0-.12-1.18v-1.06q0-11.08,7.2-17a32.82,32.82,0,0,1,4.72-3.18,3.52,3.52,0,0,1,1.29-.36,2.53,2.53,0,0,1,2.6,2.13,2.15,2.15,0,0,1,.12.7q0,27.14-7.2,42Q516.17,620.64,515.35,620.64Z"/><path class="cls-1" d="M562.61,620.4a39.1,39.1,0,0,1-20.53-6q-10.14-6.72-10.26-18.63a3,3,0,0,1,2.36-3.19,5.75,5.75,0,0,1,1-.11,4.12,4.12,0,0,1,2,.7l27.48,21.47a4,4,0,0,1,1.3,2.48,3,3,0,0,1-2.24,3.18,3.85,3.85,0,0,1-.94.12Zm-15.93-53.67a47,47,0,0,1,10.62-1.89q3.3.12,3.42,1.77-.12,4.85-24.06,21.24a3.68,3.68,0,0,1-1.42.47,2.34,2.34,0,0,1-2.36-1.89,2.5,2.5,0,0,1-.11-.71,20.19,20.19,0,0,1,5.07-13.56A18.2,18.2,0,0,1,546.68,566.73Zm39.05,10.62q2.82,7.78,2.83,11.32c-.08,1.65-.63,2.52-1.65,2.6q-5.08,0-21.94-20.65c-.4-.55-.79-1.06-1.18-1.53a2.64,2.64,0,0,1-.59-1.53,2.17,2.17,0,0,1,2-2.36,1.92,1.92,0,0,1,.59-.12q14.4.24,19.23,10.5C585.25,576.21,585.49,576.8,585.73,577.35Zm-12.62,43.17H573a3,3,0,0,1-3.07-2.48,3.39,3.39,0,0,1-.12-.83,3.59,3.59,0,0,1,1.18-2.47l27.49-21.47a3.26,3.26,0,0,1,2-.71,3,3,0,0,1,3.19,2.36,4.4,4.4,0,0,1,.11,1q0,15.92-17.1,22A45.34,45.34,0,0,1,573.11,620.52Zm20.28-78.91a16.92,16.92,0,0,1,1.3,6.48q-.12,8.5-8.14,15.81a2.69,2.69,0,0,1-1.77.71,2.59,2.59,0,0,1-2.47-2.36c-.16-3.78-.24-7.27-.24-10.5q0-21.71,3.89-21.82,2.84,0,7.32,11.44A.37.37,0,0,1,593.39,541.61Zm8.85,28.07a17,17,0,0,1,1.3,6.49q-.12,8.61-8.14,15.92a2.46,2.46,0,0,1-1.65.59,2.17,2.17,0,0,1-2.36-2,.92.92,0,0,1-.12-.36c-.16-3.93-.23-7.59-.23-11q0-21.23,3.77-21.35,2.84,0,7.31,11.44A.35.35,0,0,1,602.24,569.68Z"/><path class="cls-1" d="M639.06,560.71h.12a3,3,0,0,1,3.07,2.48,3.45,3.45,0,0,1,.12.83,3.73,3.73,0,0,1-1.3,2.48L613.58,588a3.22,3.22,0,0,1-2,.71,3,3,0,0,1-3.19-2.36,4.31,4.31,0,0,1-.11-.94q0-15.81,17-22.06A47.53,47.53,0,0,1,639.06,560.71Zm0,59.81a39.09,39.09,0,0,1-20.52-6q-10.14-6.72-10.26-18.63a3.14,3.14,0,0,1,2.36-3.19,3,3,0,0,1,1.06-.23,3.94,3.94,0,0,1,1.88.7l27.49,21.59a4.09,4.09,0,0,1,1.3,2.47,3,3,0,0,1-2.25,3.19,3.79,3.79,0,0,1-.94.12Zm19.35-57.92Q667.49,565,671,574.52a21.22,21.22,0,0,1,1.3,7.07,2.33,2.33,0,0,1-2,2.48,1,1,0,0,1-.47.12,3,3,0,0,1-1.42-.47q-23.94-16.4-24.06-21.24.24-1.65,3.42-1.77A46.14,46.14,0,0,1,658.41,562.6Zm19.34,57.92a39.09,39.09,0,0,1-20.52-6q-10.15-6.72-10.26-18.63a3.14,3.14,0,0,1,2.36-3.19,3,3,0,0,1,1.06-.23,4,4,0,0,1,1.88.7l27.49,21.59a4,4,0,0,1,1.29,2.47,3,3,0,0,1-2.24,3.19,3.79,3.79,0,0,1-.94.12Z"/><path class="cls-1" d="M689.38,620.64h-.12a2.84,2.84,0,0,1-3.07-2.6,3.13,3.13,0,0,1-.12-.71,3.76,3.76,0,0,1,1.3-2.59l27.49-21.47a3.26,3.26,0,0,1,2-.71A3.13,3.13,0,0,1,720,594.8a2.9,2.9,0,0,1,.24,1.07v.23a.92.92,0,0,0-.12.36q-3.3,19.57-23.47,23.35A44.68,44.68,0,0,1,689.38,620.64Zm38.45-59.45H728a2.81,2.81,0,0,1,3.06,2.59,3.22,3.22,0,0,1,.12.71,3.69,3.69,0,0,1-1.3,2.48l-27.48,21.58a3.24,3.24,0,0,1-2,.71,3.15,3.15,0,0,1-3.19-2.36,2.82,2.82,0,0,1-.23-1.06v-.35a.37.37,0,0,0,.11-.24q3.42-19.93,24.3-23.47A57.74,57.74,0,0,1,727.83,561.19Z"/><path class="cls-2" d="M639.24,194.19c-1.55-.08-3-.1-4.49-.1-.85.31-1.7.62-2.57.91-9.44,3.08-40.77,11.72-46.87,13,0,0-139.31,40-162.35,43-56.64,7.3-58.43-43.19-38.77-86.82l-2.65-.66c-83.4,76.8-81.42,186.72,52.47,142.71Q603.51,232.48,773,159,706.06,176.52,639.24,194.19Z"/><path class="cls-1" d="M401.32,196.51q-3.78,0-.32-18.63.87-4.4,2-9.18l.69-2.39q3.31-11.58,12.09-17.61a46.44,46.44,0,0,1,6.49-3.78,4.13,4.13,0,0,1,1.62-.38c1.59,0,2.31.72,2.16,2.14a2,2,0,0,1-.06.63q-8.3,28.94-20.55,44.92C403.28,195.08,401.9,196.51,401.32,196.51Zm36.34-67.94q-7.23,12.45-23.08,14.21a8.41,8.41,0,0,1-1.42.13h-.25c-1.42,0-2.07-.67-1.94-2a2,2,0,0,1,.06-.63,5.69,5.69,0,0,1,1-1.64Q433.56,117,440.84,114a4.75,4.75,0,0,1,1.61-.38c1.05.17,1.32,1.26.83,3.28Q442.08,121,437.66,128.57ZM424,107.68q9-12.2,25.12-12.58A2,2,0,0,1,451,97.74a4.75,4.75,0,0,1-1.14,1.76q-26.07,22.91-31.64,23c-1-.17-1.37-1-1-2.64Q418.42,116.23,424,107.68Zm12.9,40.14a16,16,0,0,1,.17-8.94q2.4-7.92,11.18-15.72a3.32,3.32,0,0,1,2.26-.88,2,2,0,0,1,2,2.26q-1.93,16.35-4.74,26.17-2.51,8.31-4.93,8.43-2.89,0-5.89-11.07A.3.3,0,0,1,436.92,147.82Zm28.28-4.28a16.37,16.37,0,0,1-.18,8.93q-2.43,8.06-11,15.6a4.52,4.52,0,0,1-2.43,1,2,2,0,0,1-2-2.27,171.92,171.92,0,0,1,4.73-26.17q2.52-8.29,4.94-8.43,2.89,0,5.88,11.08A.3.3,0,0,1,465.2,143.54Zm14.48,39.88q-7.79,12.21-23.63,13.09h-1.39a2.38,2.38,0,0,1-2-2.77,5.43,5.43,0,0,1,1.1-1.64q22.56-20.76,30-23.4a6.11,6.11,0,0,1,1.46-.25c1,.17,1.35,1.13.93,2.89Q484.92,175.24,479.68,183.42Zm-16.2-18.12q7.2-12.83,24.27-14.84H488a1.79,1.79,0,0,1,2,2.14,1.21,1.21,0,0,1,0,.5,4.48,4.48,0,0,1-.94,1.51q-24.81,25.54-30,25.67-1.68-.25-.84-3.65A63,63,0,0,1,463.48,165.3ZM499.25,95q4.15,0,.27,21-.57,3.28-1.29,6.67c-.18.93-.47,2.1-.88,3.53A30.33,30.33,0,0,1,485,143.41c-1.65,1.09-3.57,2.23-5.75,3.4a4.13,4.13,0,0,1-1.62.38,1.9,1.9,0,0,1-2.15-2.14,3.67,3.67,0,0,1,.12-.88q8.67-30.19,19.59-45C497.11,96.44,498.47,95.06,499.25,95Z"/><path class="cls-1" d="M497.1,147.31a3.89,3.89,0,0,1,2.93-2.77,2.86,2.86,0,0,1,.79-.12,2.63,2.63,0,0,1,1.4.38q7.45,5.16,7.83,12.2a31,31,0,0,1-1.38,9.18l-.68,2.39q-8.24,24.28-13.4,27.43a2.1,2.1,0,0,1-1,.38q-1.14,0-2-5.79Q489.35,174.36,497.1,147.31ZM515,144a3.94,3.94,0,0,1-3,2.89,3.57,3.57,0,0,1-.79.13,2.75,2.75,0,0,1-1.4-.38q-7.58-5.15-7.81-12.7a31.3,31.3,0,0,1,1.4-8.81l.32-1.13a13.08,13.08,0,0,0,.49-1.26q8.55-25.41,13.6-27.68a2.52,2.52,0,0,1,.66-.13q1.14,0,2,5.79Q522.78,117,515,144Z"/><path class="cls-1" d="M510.69,196.51q-4.14,0,.26-21.52.65-3.13,1.43-6.29a8.77,8.77,0,0,0,.23-1.26c.15-.5.25-.88.33-1.13q3.31-11.58,12.38-17.74a57.55,57.55,0,0,1,6.33-3.65,4.09,4.09,0,0,1,1.62-.38,1.91,1.91,0,0,1,2.15,2.14,2.47,2.47,0,0,1-.09.76q-8.3,28.94-20.52,44.79Q511.57,196.51,510.69,196.51ZM547,128.57Q539.82,141,524,142.78a8.5,8.5,0,0,1-1.42.13h-.25c-1.43,0-2.07-.67-1.94-2a2.32,2.32,0,0,1,0-.63,5.7,5.7,0,0,1,1-1.64Q542.92,117,550.21,114a4.85,4.85,0,0,1,1.62-.38c1,.17,1.32,1.26.82,3.28Q551.47,121,547,128.57ZM533.4,107.68q9-12.2,25.12-12.58a2.35,2.35,0,0,1,2,2.64,4.84,4.84,0,0,1-1.26,1.76q-26.07,22.91-31.64,23c-1-.17-1.38-1-1-2.64Q527.8,116.23,533.4,107.68ZM583.62,191a2.52,2.52,0,0,1,.17,2,4.34,4.34,0,0,1-3.21,2.9,37.72,37.72,0,0,1-6.06.5,15.42,15.42,0,0,1-14.18-8,19.82,19.82,0,0,1-1.52-3q-8.05-18-6.48-23.91a2.7,2.7,0,0,1,2.3-1.88q6.79,0,26.05,27.17C581.71,188.12,582.68,189.54,583.62,191Zm25.9-90.33q-38.47,30.19-47,31.45c-1-.17-1.46-.8-1.22-1.89q1.85-6,20.19-23.9,10.14-9.94,19.24-11c.94-.08,1.88-.12,2.8-.12a30.32,30.32,0,0,1,5.77.5c1.42.33,1.93,1.3,1.56,2.89A5.17,5.17,0,0,1,609.52,100.64Z"/><path class="cls-1" d="M590.65,192.86q22.05-42.29,29.79-46.43a2.79,2.79,0,0,1,1.12-.38q3.06.25-.76,13.59-1.83,6.42-5,14.85-4.9,12.7-14.29,18.24a56.53,56.53,0,0,1-7.93,3.52,9.7,9.7,0,0,1-1.07.26c-1.43,0-2.14-.76-2.12-2.27a2.15,2.15,0,0,1,.09-.75ZM604.81,143a17.83,17.83,0,0,1,.52-2.26q3.36-11.7,18.3-18.62l.58-.25a2.9,2.9,0,0,1,1.2-.25,1.82,1.82,0,0,1,2.1,1.88,2.44,2.44,0,0,1-.09.76l-.07.25a1.29,1.29,0,0,0-.24.38q-16.79,32.2-21.69,32.21-3,0-.68-13.84A2.5,2.5,0,0,1,604.81,143Zm12,38.5a27.11,27.11,0,0,1,22-10.44,32.79,32.79,0,0,1,3.71.25,2,2,0,0,1,1.63,2.64,4.43,4.43,0,0,1-1.42,1.89q-27.16,20.13-33,20.26c-1-.17-1.42-.88-1.14-2.14Q609.7,190.46,616.79,181.53Zm-7.27-60.64q9.75-21.26,33.1-25a67.79,67.79,0,0,1,7.1-.62h.12q2.89,0,2.64,2.64a3.1,3.1,0,0,1-.09.75,5.79,5.79,0,0,1-2.17,2.77l-35.89,22.9a4.68,4.68,0,0,1-2.48.75c-1.76,0-2.65-.83-2.67-2.51a4.43,4.43,0,0,1,.16-1Zm25,21.26a27.11,27.11,0,0,1,22-10.44,32.79,32.79,0,0,1,3.71.25,2.05,2.05,0,0,1,1.63,2.65,4.68,4.68,0,0,1-1.46,2q-27.17,20.13-33,20.25c-1-.16-1.42-.92-1.12-2.26Q627.41,151.08,634.5,142.15Zm-1.75,54.36h-.12c-1.85,0-2.67-.93-2.48-2.77a3.2,3.2,0,0,1,.09-.76,5.64,5.64,0,0,1,2-2.76l36-22.9a4.46,4.46,0,0,1,2.36-.76q2.64,0,2.67,2.52a4.34,4.34,0,0,1-.16,1l-.18.63q-9.51,20.89-32.18,24.91A51.9,51.9,0,0,1,632.75,196.51Zm39-99.65q13.62,1.64,12.85,4.78-1.54,4.9-35.78,12.46h-.63a1.78,1.78,0,0,1-2-2.14.94.94,0,0,1,0-.5,5.3,5.3,0,0,1,.74-1.26q10.86-13.33,22.6-13.46A14.89,14.89,0,0,1,671.77,96.86Z"/><path class="cls-1" d="M644.54,820c36.45-16,60.25-40.11,61.54-66.82,0,0-9.62-7.41-40.68-18.84-27.28-10-48.1-12.34-48.1-12.34l.1,59.52c0,8.89-3.57,18-10.31,26a288.75,288.75,0,0,0-67.31-7.78h0a288.78,288.78,0,0,0-67.37,7.8c-6.74-8-10.32-17.12-10.32-26l.09-59.52s-20.8,2.3-48.09,12.34C383,745.77,373.4,753.18,373.4,753.18,374.68,779.9,398.49,804,435,820c-36.45,16-60.25,40.11-61.53,66.81,0,0,9.61,7.42,40.67,18.84,27.29,10,48.1,12.34,48.1,12.34l-.1-59.51c0-8.9,3.57-18,10.32-26a287.61,287.61,0,0,0,67.3,7.77h0a287.08,287.08,0,0,0,67.38-7.8c6.74,8,10.31,17.14,10.31,26L617.35,918s20.81-2.3,48.09-12.34c31.07-11.42,40.68-18.84,40.68-18.84C704.83,860.11,681,836,644.54,820M539.75,833.39H539c-21.58,0-39.17-5.29-52.08-13.36,12.91-8.1,30.51-13.39,52.13-13.39h1.38c21.59,0,39.17,5.29,52.08,13.36-12.91,8.09-30.51,13.39-52.12,13.39"/><path class="cls-1" d="M319.92,978.75q-5.54-1.38-6.2-6.06a8.39,8.39,0,0,1-.06-1c.12-.53.54-.82,1.26-.88a2.58,2.58,0,0,1,.85.21q11.24,6.43,11.3,8.15c-.08.36-.54.55-1.38.58A30,30,0,0,1,319.92,978.75Zm2.1-7.81q0,.75-1,1l-.36,0a2,2,0,0,1-.72-.13c-2.89-1.14-4.71-2.54-5.48-4.22a7.28,7.28,0,0,1-.54-2.92v-.79c.4-5.38,1.29-8.41,2.65-9.11a1,1,0,0,1,.42-.12q.54,0,1.74,1.92Q322,962,322,970.94Zm7.76,17.46q-11.07-.25-14.55-5.85a9.27,9.27,0,0,1-1.15-2.67v-.21c0-.62.4-1,1.21-1.17a3.28,3.28,0,0,1,.48,0,2.55,2.55,0,0,1,1,.25l14.07,7.64a1.07,1.07,0,0,1,.61.88c0,.61-.41,1-1.21,1.12a2.37,2.37,0,0,1-.42,0Zm5.78,0h-.06a1.57,1.57,0,0,1-1.63-.88.88.88,0,0,1-.06-.29,1.23,1.23,0,0,1,.66-.88l14-7.64a2.26,2.26,0,0,1,1.08-.25,1.51,1.51,0,0,1,1.56.83.76.76,0,0,1,.12.38v.21q-1.74,7.05-12.39,8.31Q337.24,988.35,335.56,988.4Zm9.86-9.65a26.71,26.71,0,0,1-5.77,1c-.89,0-1.35-.22-1.39-.58q.06-1.75,11.31-8.15a1.86,1.86,0,0,1,.84-.21c.72.11,1.14.4,1.26.88a6.53,6.53,0,0,1-4,6.26A12.8,12.8,0,0,1,345.42,978.75Zm2.95-24.1q1.86,0,2.76,6.39c.12.89.22,1.84.3,2.84v.79a6.51,6.51,0,0,1-3.54,6c-.73.39-1.55.78-2.47,1.17a2,2,0,0,1-.72.13,1.28,1.28,0,0,1-1.33-.75.61.61,0,0,1-.06-.25q0-9.62,3.67-14.87C347.62,955.12,348.09,954.65,348.37,954.65Z"/><path class="cls-1" d="M365.28,965.88q-1.74,4.14-9.08,4.72a5.29,5.29,0,0,1-.66,0h-.12q-1,0-1.2-.66a.57.57,0,0,1-.06-.21,1.11,1.11,0,0,1,.24-.55q7.34-7.19,10.4-8.18a2.39,2.39,0,0,1,.72-.13c.52.06.81.42.85,1.09A10.82,10.82,0,0,1,365.28,965.88Zm-8.06,22.56q-1.8,0-2.7-6.18c-.12-1-.22-2-.3-3v-.8a6.4,6.4,0,0,1,3.36-5.84,16.05,16.05,0,0,1,2.59-1.26,2.27,2.27,0,0,1,.72-.12c.76,0,1.21.23,1.33.71a.68.68,0,0,1,.06.21q0,9.6-3.67,14.91C358,988,357.5,988.44,357.22,988.44ZM355.9,959q2.64-4.05,10.29-4.18c.76.09,1.18.38,1.26.88a.93.93,0,0,1-.3.58q-9.33,7.6-12,7.65a.86.86,0,0,1-.84-.88A11.8,11.8,0,0,1,355.9,959Zm11.67,13.32a4.55,4.55,0,0,1-1.14-3q.06-2.64,3.18-5.22a1.46,1.46,0,0,1,1-.3c.68.06,1.1.31,1.26.76a38.83,38.83,0,0,1,1.32,8.68c0,1.84-.44,2.77-1.2,2.8-.92,0-2.37-1.22-4.33-3.67A.12.12,0,0,1,367.57,972.27Zm12.93-1.42a4.7,4.7,0,0,1,1.14,3q-.06,2.67-3.12,5.18a2,2,0,0,1-1,.33q-1-.08-1.26-.75a38.9,38.9,0,0,1-1.32-8.69c0-1.84.44-2.77,1.2-2.8.92,0,2.37,1.23,4.33,3.68C380.48,970.8,380.5,970.83,380.5,970.85Zm12.39,13.24q-2,4-9.5,4.35h-.66a1.46,1.46,0,0,1-1.33-.92,1,1,0,0,1,.3-.54q7.95-6.9,11.13-7.77a3.36,3.36,0,0,1,.66-.09.9.9,0,0,1,.84,1A11.44,11.44,0,0,1,392.89,984.09Zm-10.22-6q1.68-4.26,9.56-4.93h.12c.68,0,1.1.24,1.26.71a.29.29,0,0,1,.06.17.87.87,0,0,1-.24.5q-8.35,8.47-10.82,8.52c-.57-.06-.87-.46-.91-1.21A11.58,11.58,0,0,1,382.67,978.08Zm7.45-23.35q2,0,3,7c.12.72.22,1.46.3,2.21a9.42,9.42,0,0,1,.06,1.17,6.38,6.38,0,0,1-3.55,5.72c-.64.36-1.4.74-2.28,1.13a2.27,2.27,0,0,1-.72.12,1.27,1.27,0,0,1-1.33-.71.83.83,0,0,1-.06-.29q0-10,3.19-14.95Q389.58,954.78,390.12,954.73Z"/><path class="cls-1" d="M411.61,954.81h.06c.92,0,1.46.3,1.62.88a1,1,0,0,1,.07.25,1.27,1.27,0,0,1-.67.92l-14,7.6a2.26,2.26,0,0,1-1.08.25,1.58,1.58,0,0,1-1.63-.83,1,1,0,0,1-.06-.34v-.21q1.75-7.05,12.39-8.31C409.39,954.91,410.49,954.84,411.61,954.81Zm-15,15.92a3.92,3.92,0,0,1-.06-.75q0-3.88,6.2-6.19l.24-.08a1.8,1.8,0,0,1,.54-.08,1.26,1.26,0,0,1,1.26.62.63.63,0,0,1,.07.25s0,.07-.07.13v.08q-3.6,10.69-5.95,10.7-1.44,0-2.23-4.6Zm.06,16.45q4.94-14.45,7.94-15.49a2,2,0,0,1,.37,0c1,.05,1.56,1.56,1.56,4.51a39.27,39.27,0,0,1-.36,4.93,7.54,7.54,0,0,1-4.33,6,23.65,23.65,0,0,1-3.31,1.17l-.48.09a1.28,1.28,0,0,1-1.33-.76.54.54,0,0,1-.06-.25Zm11-3.71q2.66-3.47,9.08-3.47c.52,0,1.13,0,1.81.08s1.06.41,1.14.88a.94.94,0,0,1-.42.63q-10.23,6.67-13,6.72c-.52,0-.8-.29-.84-.71Q405.54,986.43,407.7,983.47Zm9.63,5h-.07c-.88,0-1.4-.31-1.56-.92a.86.86,0,0,1-.06-.25,1.18,1.18,0,0,1,.6-.92l14.08-7.6a2.14,2.14,0,0,1,1-.25,1.57,1.57,0,0,1,1.62.83,1,1,0,0,1,.06.34v.21q-1.68,6.93-12,8.27A34.19,34.19,0,0,1,417.33,988.44Zm10.16-29.24a10.29,10.29,0,0,1,1.44,4c0,.58-.32.89-.84.92q-2.52,0-11.73-7.85a.83.83,0,0,1-.3-.55,1.33,1.33,0,0,1,1.27-.87h.05c4.94,0,8.2,1.33,9.81,3.84A3.31,3.31,0,0,1,427.49,959.2Zm4.75,13a3.49,3.49,0,0,1,.12.75q0,3.88-6.31,6.18a.74.74,0,0,0-.18.09,1.87,1.87,0,0,1-.55.08,1.25,1.25,0,0,1-1.26-.63.54.54,0,0,1-.06-.25s0,0,.06-.08v-.13q3.62-10.68,6-10.69,1.44,0,2.22,4.6Z"/><path class="cls-1" d="M433.73,963.33q1.74-7.05,12.39-8.31c1.08-.11,2.18-.18,3.31-.21h.06c.92,0,1.46.3,1.62.88a.86.86,0,0,1,.06.25,1.26,1.26,0,0,1-.66.92l-14,7.6a2.33,2.33,0,0,1-1.09.25,1.57,1.57,0,0,1-1.62-.83,1,1,0,0,1-.06-.34Zm.78,7.36a4,4,0,0,1-.06-.76q0-3.88,6.2-6.18l.24-.08a1.53,1.53,0,0,1,.54-.09,1.25,1.25,0,0,1,1.26.63.57.57,0,0,1,.06.25v.09a.22.22,0,0,0-.06.12q-3.62,10.7-5.95,10.69-1.46,0-2.23-4.59Zm.06,16.54q4.76-14,7.88-15.42a1.38,1.38,0,0,1,.48-.12c1,0,1.5,1.56,1.5,4.51a39.27,39.27,0,0,1-.36,4.93,7.52,7.52,0,0,1-4.33,6,22.76,22.76,0,0,1-3.31,1.17l-.48.09a1.26,1.26,0,0,1-1.32-.75.62.62,0,0,1-.06-.26Zm10.95-3.76q2.64-3.47,9.08-3.47c.52,0,1.12,0,1.8.08s1.07.41,1.15.88a.94.94,0,0,1-.42.63q-10.23,6.67-13,6.72c-.52,0-.8-.29-.84-.71Q443.35,986.43,445.52,983.47Zm3.06-13.08q2.66-3.46,9.09-3.46c.52,0,1.12,0,1.8.08s1.06.4,1.14.88a1,1,0,0,1-.42.67q-10.21,6.68-13,6.72-.78-.09-.84-.75Q446.42,973.36,448.58,970.39Zm11.61-15q6.74.54,6.8,1.58-.06,1.63-15.4,4.14h-.3c-.68,0-1.1-.24-1.26-.71a.29.29,0,0,1-.06-.17,1.33,1.33,0,0,1,.18-.42,10.81,10.81,0,0,1,9-4.47A9.24,9.24,0,0,1,460.19,955.36Zm-5,33.08h-.06c-.88,0-1.4-.31-1.56-.92a.86.86,0,0,1-.06-.25,1.18,1.18,0,0,1,.6-.92l14.07-7.6a2.14,2.14,0,0,1,1-.25,1.58,1.58,0,0,1,1.63.83,1,1,0,0,1,.06.34v.21q-1.68,6.93-12,8.27A34.37,34.37,0,0,1,455.2,988.44Z"/><path class="cls-1" d="M480.84,959.7q-1.63,4.09-9,4.72a7.59,7.59,0,0,1-.79,0H471c-.68,0-1.08-.22-1.2-.67a.48.48,0,0,1-.06-.21,1.11,1.11,0,0,1,.24-.5q8.48-8.31,11.07-8.35c.56.06.86.43.9,1.13A11.67,11.67,0,0,1,480.84,959.7Zm4.57,3.72h.06a1.55,1.55,0,0,1,1.62.87.93.93,0,0,1,.06.3,1.26,1.26,0,0,1-.66.92l-14,7.6a2.33,2.33,0,0,1-1.09.25,1.57,1.57,0,0,1-1.62-.84,1,1,0,0,1-.06-.33V972q1.68-6.93,12-8.27A31.86,31.86,0,0,1,485.41,963.42Zm-8.6,25q-2,0-2.83-7.19c-.08-.64-.14-1.31-.18-2v-.84a6.47,6.47,0,0,1,3.49-5.89,21.32,21.32,0,0,1,2.52-1.21,2.57,2.57,0,0,1,.67-.12c.72,0,1.18.23,1.38.71a.54.54,0,0,1,.06.25q0,9.6-3.73,14.87C477.55,987.94,477.09,988.41,476.81,988.44Zm14.31-33.71q11.07.25,14.56,5.85a9.28,9.28,0,0,1,1.14,2.67v.21c0,.58-.4,1-1.2,1.13a3.28,3.28,0,0,1-.48,0,2.73,2.73,0,0,1-1-.25l-14-7.6a1.37,1.37,0,0,1-.66-.92c0-.59.4-1,1.2-1.09a2.27,2.27,0,0,1,.42,0Zm18.77,32a.88.88,0,0,1,.3.66c-.08.56-.48.88-1.2,1-1,.05-1.65.08-2.05.08a12.2,12.2,0,0,1-8.18-2.76,13.89,13.89,0,0,1-1.38-1.29q-5.6-6-5.66-8.11a.76.76,0,0,1,.78-.66q3,0,14.2,8.6C507.74,985.07,508.8,985.9,509.89,986.77Zm-10.05-13a33.06,33.06,0,0,1-5.53.75c-1,0-1.59-.24-1.62-.63,0-1.2,4.05-3.76,12-7.69a1.79,1.79,0,0,1,.73-.16c.68,0,1.08.22,1.2.67a.49.49,0,0,1,.06.2,6.22,6.22,0,0,1-2.77,5.14A11.18,11.18,0,0,1,499.84,973.74Z"/><path class="cls-1" d="M527.35,972.4a1.63,1.63,0,0,1,1.33-.63,1.87,1.87,0,0,1,1.14.46,6.86,6.86,0,0,1,2.16,4.39,7.8,7.8,0,0,1-2.16,4.55q-5.54,6.48-8.12,7.18a2.37,2.37,0,0,1-.42,0c-.52-.06-.81-.44-.84-1.13Q520.49,983.71,527.35,972.4Zm1.39-3q7.15-13.44,10.4-14.62a2.15,2.15,0,0,1,.48-.08c.72.06,1.09.78,1.09,2.17a24.84,24.84,0,0,1-1.51,7.27,8.31,8.31,0,0,1-5.23,5.6,18,18,0,0,1-3.55,1,1.47,1.47,0,0,1-.36,0q-1.08,0-1.32-.75a.61.61,0,0,1-.06-.25A.66.66,0,0,1,528.74,969.43Zm22.61,3.64a23,23,0,0,1-10.46,2.71,17.56,17.56,0,0,1-9.45-2.76,1.13,1.13,0,0,1-.54-.87c0-.59.38-1,1.14-1.13a3.62,3.62,0,0,1,.54,0h17.81a1.55,1.55,0,0,1,1.62.88.83.83,0,0,1,.06.29A1.25,1.25,0,0,1,551.35,973.07Zm2.89-3.64a2,2,0,0,1,.12.34q0,.75-1,1a1.47,1.47,0,0,1-.36,0,1.14,1.14,0,0,1-.37,0c-3.36-.64-5.71-1.73-7-3.26a8.51,8.51,0,0,1-1.81-3.3,24.59,24.59,0,0,1-1.44-7.27c0-1.42.38-2.14,1-2.17q2.42,0,8.18,9.82C552.41,966.05,553.32,967.68,554.24,969.43Zm1.38,3q6.92,11.36,6.92,14.87c0,.72-.32,1.1-.84,1.13q-2,0-6.86-5.31-.84-.92-1.68-1.92-2.17-2.55-2.17-4.55a7.11,7.11,0,0,1,2.17-4.39,1.87,1.87,0,0,1,1.14-.46A1.62,1.62,0,0,1,555.62,972.4Z"/><path class="cls-1" d="M571.8,959.7c-1.09,2.73-4.07,4.3-9,4.72a7.28,7.28,0,0,1-.78,0h-.12c-.68,0-1.08-.22-1.2-.67a.48.48,0,0,1-.06-.21,1.11,1.11,0,0,1,.24-.5q8.48-8.31,11.07-8.35c.56.06.86.43.9,1.13A11.67,11.67,0,0,1,571.8,959.7Zm4.57,3.72h.06a1.55,1.55,0,0,1,1.62.87.93.93,0,0,1,.06.3,1.26,1.26,0,0,1-.66.92l-14,7.6a2.3,2.3,0,0,1-1.09.25,1.57,1.57,0,0,1-1.62-.84,1,1,0,0,1-.06-.33V972q1.68-6.93,12-8.27A31.86,31.86,0,0,1,576.37,963.42Zm-8.6,25q-2,0-2.83-7.19c-.08-.64-.14-1.31-.18-2v-.84a6.47,6.47,0,0,1,3.49-5.89,21.32,21.32,0,0,1,2.52-1.21,2.64,2.64,0,0,1,.67-.12c.72,0,1.18.23,1.38.71a.54.54,0,0,1,.06.25q0,9.6-3.73,14.87C568.51,987.94,568.05,988.41,567.77,988.44Zm14.31-33.71q11.07.25,14.56,5.85a9.28,9.28,0,0,1,1.14,2.67v.21c0,.58-.4,1-1.2,1.13a3.28,3.28,0,0,1-.48,0,2.78,2.78,0,0,1-1-.25l-14-7.6a1.37,1.37,0,0,1-.66-.92c0-.59.4-1,1.2-1.09a2.27,2.27,0,0,1,.42,0Zm18.77,32a.88.88,0,0,1,.3.66c-.08.56-.48.88-1.2,1-1,.05-1.65.08-2.05.08a12.2,12.2,0,0,1-8.18-2.76,13.89,13.89,0,0,1-1.38-1.29q-5.6-6-5.66-8.11a.76.76,0,0,1,.79-.66q3,0,14.19,8.6C598.7,985.07,599.77,985.9,600.85,986.77Zm-10.05-13a33.06,33.06,0,0,1-5.53.75q-1.56,0-1.62-.63.06-1.8,12-7.69a1.71,1.71,0,0,1,.72-.16c.68,0,1.08.22,1.2.67a.49.49,0,0,1,.06.2,6.22,6.22,0,0,1-2.77,5.14A11.18,11.18,0,0,1,590.8,973.74Z"/><path class="cls-1" d="M617.67,965.88c-1.17,2.76-4.19,4.33-9.09,4.72a5.29,5.29,0,0,1-.66,0h-.12q-1,0-1.2-.66a.57.57,0,0,1-.06-.21,1.11,1.11,0,0,1,.24-.55q7.34-7.19,10.41-8.18a2.39,2.39,0,0,1,.72-.13c.52.06.8.42.84,1.09A10.76,10.76,0,0,1,617.67,965.88Zm-8.06,22.52c-1.33,0-2.27-2.39-2.83-7.15-.08-.69-.14-1.39-.18-2.08a1.76,1.76,0,0,0-.06-.42v-.38a6.47,6.47,0,0,1,3.49-5.89,19.86,19.86,0,0,1,2.52-1.21,2.37,2.37,0,0,1,.73-.12,1.26,1.26,0,0,1,1.32.71.54.54,0,0,1,.06.25q0,9.6-3.67,14.87C610.35,987.92,609.89,988.4,609.61,988.4Zm-1.33-29.49q2.65-4,10.29-4.18a1.46,1.46,0,0,1,1.32.88,1,1,0,0,1-.36.58q-9.31,7.6-12,7.65a.86.86,0,0,1-.84-.88A11.8,11.8,0,0,1,608.28,958.91Zm14.56,4.47q0-.75,1-1a2.29,2.29,0,0,1,.36,0,2.34,2.34,0,0,1,.73.13c2.88,1.14,4.71,2.55,5.47,4.22a7.32,7.32,0,0,1,.54,2.92v.8q-.6,8.05-2.65,9.1a1,1,0,0,1-.42.13q-.54,0-1.74-1.92Q622.84,972.35,622.84,963.38Zm21.53-4.47a10.52,10.52,0,0,1,1.57,4.05.83.83,0,0,1-.85.88q-2.64,0-12-7.65a.73.73,0,0,1-.31-.58,1.35,1.35,0,0,1,1.27-.88q7.51,0,10,3.76Zm-9.38,7a11.07,11.07,0,0,1-1.08-3.88c0-.7.34-1.06.9-1.09q2.52,0,10.71,8l.36.33a.78.78,0,0,1,.24.55c0,.47-.32.75-1,.83a1.24,1.24,0,0,1-.3,0h-.12q-7.22-.37-9.44-4.09A4.43,4.43,0,0,1,635,965.88Zm3,6.23q0-.72,1-1a2.37,2.37,0,0,1,.42,0,4.06,4.06,0,0,1,.66.13c2.93,1.17,4.77,2.59,5.54,4.26a7.22,7.22,0,0,1,.54,2.88v.38a2.28,2.28,0,0,0-.06.42c-.4,5.62-1.31,8.68-2.71,9.18a1.33,1.33,0,0,1-.3,0c-.36,0-.94-.64-1.74-1.93Q637.93,981.09,637.94,972.11Z"/><path class="cls-1" d="M665.83,954.81h.06c.92,0,1.46.3,1.62.88a.86.86,0,0,1,.06.25,1.26,1.26,0,0,1-.66.92l-14,7.6a2.26,2.26,0,0,1-1.08.25,1.58,1.58,0,0,1-1.63-.83,1,1,0,0,1-.06-.34v-.21q1.74-7.05,12.39-8.31C663.6,954.91,664.71,954.84,665.83,954.81Zm-15.64,15.83a3.77,3.77,0,0,1-.06-.75q.06-3.92,6.44-6.22a1.44,1.44,0,0,1,.6-.13c.68,0,1.08.23,1.2.67a.52.52,0,0,1,.06.21v.21q-3.6,10.7-5.95,10.69-1.51,0-2.29-4.59Zm15.64,17.8q-11.25-.26-14.62-6a10.76,10.76,0,0,1-1-2.5.12.12,0,0,0-.06-.09v-.12c0-.56.4-.93,1.2-1.13a2,2,0,0,1,.55-.08,2.55,2.55,0,0,1,1,.25l14,7.64a1.35,1.35,0,0,1,.66.88c0,.58-.38,1-1.14,1.13-.2,0-.38,0-.54,0Zm5.77-33.63q11.07.26,14.56,5.85a9.52,9.52,0,0,1,1.14,2.67v.21c0,.59-.4,1-1.2,1.13a3.28,3.28,0,0,1-.48,0,2.55,2.55,0,0,1-1-.25l-14.08-7.6a1.09,1.09,0,0,1-.6-.92q0-.87,1.2-1.08a2.37,2.37,0,0,1,.42-.05Zm0,33.63h-.06c-.88,0-1.4-.31-1.56-.92a.86.86,0,0,1-.06-.25,1.16,1.16,0,0,1,.6-.88l14.08-7.64a2.14,2.14,0,0,1,1-.25,1.52,1.52,0,0,1,1.56.83.79.79,0,0,1,.12.38v.21q-1.74,7.05-12.39,8.31C673.83,988.34,672.73,988.41,671.6,988.44Zm15.64-17.8c-.52,3.1-1.26,4.65-2.22,4.68q-2.35,0-6-10.69a.09.09,0,0,0-.06-.08v-.13q0-.7,1-.84a2,2,0,0,1,.31,0,2.7,2.7,0,0,1,.6.13q6.38,2.34,6.43,6.22A3.38,3.38,0,0,1,687.24,970.64Z"/><path class="cls-1" d="M697.44,978.75q-5.54-1.38-6.19-6.06a8.39,8.39,0,0,1-.06-1c.12-.53.54-.82,1.26-.88a2.59,2.59,0,0,1,.84.21q11.25,6.43,11.31,8.15c-.08.36-.54.55-1.38.58A30.08,30.08,0,0,1,697.44,978.75Zm2.11-7.81q0,.75-1,1l-.36,0a2,2,0,0,1-.73-.13c-2.88-1.14-4.71-2.54-5.47-4.22a7.28,7.28,0,0,1-.54-2.92v-.79c.4-5.38,1.28-8.41,2.65-9.11a1,1,0,0,1,.42-.12q.54,0,1.74,1.92Q699.56,962,699.55,970.94Zm7.76,17.46q-11.07-.25-14.56-5.85a9.52,9.52,0,0,1-1.14-2.67v-.21q0-.93,1.2-1.17a3.28,3.28,0,0,1,.48,0,2.6,2.6,0,0,1,1,.25l14.07,7.64a1.05,1.05,0,0,1,.6.88c0,.61-.4,1-1.2,1.12a2.37,2.37,0,0,1-.42,0Zm5.77,0H713a1.56,1.56,0,0,1-1.62-.88.88.88,0,0,1-.06-.29,1.23,1.23,0,0,1,.66-.88l14-7.64a2.3,2.3,0,0,1,1.09-.25,1.51,1.51,0,0,1,1.56.83.76.76,0,0,1,.12.38v.21q-1.74,7.05-12.39,8.31C715.31,988.3,714.2,988.37,713.08,988.4Zm9.87-9.65a26.68,26.68,0,0,1-5.78,1c-.88,0-1.34-.22-1.38-.58q.06-1.75,11.31-8.15a1.86,1.86,0,0,1,.84-.21c.72.11,1.14.4,1.26.88a6.53,6.53,0,0,1-4,6.26A12.8,12.8,0,0,1,723,978.75Zm2.94-24.1q1.88,0,2.77,6.39c.12.89.22,1.84.3,2.84v.79a6.5,6.5,0,0,1-3.55,6q-1.08.58-2.46,1.17a2.08,2.08,0,0,1-.73.13,1.26,1.26,0,0,1-1.32-.75.61.61,0,0,1-.06-.25q0-9.62,3.67-14.87C725.15,955.12,725.61,954.65,725.89,954.65Z"/><path class="cls-1" d="M741.78,959.7q-1.63,4.09-9,4.72a7.59,7.59,0,0,1-.79,0h-.12c-.68,0-1.08-.22-1.2-.67a.48.48,0,0,1-.06-.21,1.11,1.11,0,0,1,.24-.5q8.48-8.31,11.07-8.35c.56.06.86.43.9,1.13A11.67,11.67,0,0,1,741.78,959.7Zm4.57,3.72h.06a1.55,1.55,0,0,1,1.62.87.93.93,0,0,1,.06.3,1.26,1.26,0,0,1-.66.92l-14,7.6a2.3,2.3,0,0,1-1.09.25,1.57,1.57,0,0,1-1.62-.84,1,1,0,0,1-.06-.33V972q1.68-6.93,12-8.27A31.86,31.86,0,0,1,746.35,963.42Zm-8.6,25q-2,0-2.83-7.19c-.08-.64-.14-1.31-.18-2v-.84a6.47,6.47,0,0,1,3.49-5.89,21.32,21.32,0,0,1,2.52-1.21,2.71,2.71,0,0,1,.67-.12c.72,0,1.18.23,1.38.71a.54.54,0,0,1,.06.25q0,9.6-3.73,14.87C738.49,987.94,738,988.41,737.75,988.44Zm14.31-33.71q11.07.25,14.56,5.85a9.28,9.28,0,0,1,1.14,2.67v.21c0,.58-.4,1-1.2,1.13a3.28,3.28,0,0,1-.48,0,2.78,2.78,0,0,1-1-.25l-14-7.6a1.37,1.37,0,0,1-.66-.92c0-.59.4-1,1.2-1.09a2.27,2.27,0,0,1,.42,0Zm18.77,32a.88.88,0,0,1,.3.66c-.08.56-.48.88-1.2,1-1,.05-1.65.08-2,.08a12.2,12.2,0,0,1-8.18-2.76,13.89,13.89,0,0,1-1.38-1.29q-5.6-6-5.66-8.11a.76.76,0,0,1,.79-.66q3,0,14.19,8.6C768.68,985.07,769.75,985.9,770.83,986.77Zm-10.05-13a33.06,33.06,0,0,1-5.53.75q-1.56,0-1.62-.63.06-1.8,12-7.69a1.71,1.71,0,0,1,.72-.16c.68,0,1.08.22,1.2.67a.49.49,0,0,1,.06.2,6.22,6.22,0,0,1-2.77,5.14A11.18,11.18,0,0,1,760.78,973.74Z"/></svg>