<?xml version="1.0" encoding="utf-8"?>
<!-- Generator: Adobe Illustrator 24.0.1, SVG Export Plug-In . SVG Version: 6.00 Build 0)  -->
<svg version="1.1" id="Layer_1" xmlns="http://www.w3.org/2000/svg" xmlns:xlink="http://www.w3.org/1999/xlink" x="0px" y="0px"
	 viewBox="0 0 16 16" style="enable-background:new 0 0 16 16;" xml:space="preserve">
<title>favicon</title>
<path d="M8,12.9l1.3,1.8c0.2,0.3,0.6,0.5,1,0.5h3.6c0.6,0,1.2-0.5,1.2-1.2l0,0V1.8c0-0.6-0.5-1.2-1.2-1.2l0,0h-0.8
	c-0.6,0-1.2,0.5-1.1,1.2V5c0,0.6-0.5,1.2-1.2,1.2c-0.4,0-0.7-0.2-0.9-0.5L8,3.1l0,0L6.7,1.3C6.5,1,6.1,0.8,5.7,0.8H2.1
	C1.5,0.8,0.9,1.4,0.9,2v12.2c0,0.6,0.5,1.2,1.2,1.2l0,0h0.8c0.6,0,1.2-0.5,1.2-1.2V11c0-0.6,0.5-1.2,1.2-1.2c0.4,0,0.7,0.2,0.9,0.5
	L8,12.9"/>
</svg>
