<svg id="Layer_1" data-name="Layer 1" xmlns="http://www.w3.org/2000/svg" viewBox="0 0 931.86 200.6"><defs><style>.cls-1{fill:#fc4302;}</style></defs><title>nabla-h</title><path class="cls-1" d="M862.4,2.7a12,12,0,0,1,11.48,8.49l52.5,168.2a7.86,7.86,0,0,1,.44,3.37l0,.22v.22a12.12,12.12,0,0,1-12.1,12.1H857.9a12.11,12.11,0,0,1-11.71-9.25l-5.8-23.69-6.1-25.3-8.2-33.81a19.83,19.83,0,0,0-19.56-15.32,19.61,19.61,0,0,0-19.27,14.56l-9.9,34.37-7.5,25.3v.06L763,186.45a12.06,12.06,0,0,1-11.64,8.85H602.8a12.22,12.22,0,0,1-10.45-6,12.59,12.59,0,0,0-11-6.21,13,13,0,0,0-5.48,1.21c-8.92,4.12-27,11-48,11H325.3a12.11,12.11,0,0,1-11.71-9.25l-5.8-23.69-6.11-25.31-8.29-33.8a20.09,20.09,0,0,0-38.83-.76l-9.9,34.37-7.51,25.34-6.89,24.19a12.23,12.23,0,0,1-11.66,8.81H129.34a12.34,12.34,0,0,1-9.8-5L74,127.17a19.66,19.66,0,0,0-16.11-8.39A20,20,0,0,0,37.6,138.9V183a12.12,12.12,0,0,1-12.1,12.1H15.1A12.12,12.12,0,0,1,3,183V14.8A12.12,12.12,0,0,1,15.1,2.7h51a12,12,0,0,1,9.84,5.11l43.2,60.91a19.77,19.77,0,0,0,16.24,8.5A20,20,0,0,0,155.6,57.1V14.8A12.12,12.12,0,0,1,167.7,2.7h10.4a12.12,12.12,0,0,1,12.1,12.1V129a8.35,8.35,0,0,0,8.3,8.25,8.06,8.06,0,0,0,7.7-5.6L247,10.88A12,12,0,0,1,258.4,2.7h71.2a12.07,12.07,0,0,1,11.58,8.49L376,122.79l0,.07,0,.07a8.2,8.2,0,0,0,16-2.63V14.8A12.12,12.12,0,0,1,404.1,2.7H520.6c26.57,0,46.93,18,48.41,42.74.91,14.83-1.73,25.64-8,33.07l-.05,0,0,0c-.42.54-.9,1.14-1.4,1.88l0,0,0,0a19.93,19.93,0,0,0,5.88,27.38,48.19,48.19,0,0,1,10.88,9.86,8.2,8.2,0,0,0,14.62-5.1V14.8A12.12,12.12,0,0,1,602.9,2.7h49.6a12.12,12.12,0,0,1,12.1,12.1V139.9A20.13,20.13,0,0,0,684.7,160h29.5a21.22,21.22,0,0,0,20-14.32l45.6-134.8A12,12,0,0,1,791.2,2.7h71.2m-376.5,86h1.7c7.61,0,13.9-2,18.7-6,6.5-5.38,9.8-14,9.8-25.7,0-27.49-14.41-31.2-28.5-31.2h-1.7a20.13,20.13,0,0,0-20.1,20.1V68.6a20.13,20.13,0,0,0,20.1,20.1m0,82.6h4.9c7.66,0,13.82-2.3,18.33-6.82,5.54-5.57,8.32-14.38,8.27-26.18,0-30.16-20.36-32.5-26.6-32.5h-4.9a20.13,20.13,0,0,0-20.1,20.1v25.3a20.13,20.13,0,0,0,20.1,20.1M862.4-1.3H791.2A16,16,0,0,0,776,9.6L730.4,144.4A17.22,17.22,0,0,1,714.2,156H684.7a16.09,16.09,0,0,1-16.1-16.1V14.8A16.09,16.09,0,0,0,652.5-1.3H602.9a16.09,16.09,0,0,0-16.1,16.1v97.9a4.2,4.2,0,0,1-7.5,2.6,52,52,0,0,0-11.8-10.7,15.9,15.9,0,0,1-4.7-21.9c.4-.6.8-1.1,1.2-1.6,7.5-8.8,9.9-21.2,9-35.9-1.6-26.8-23.5-46.5-52.4-46.5H404.1A16.15,16.15,0,0,0,388,14.8V120.3a4.23,4.23,0,0,1-4.2,4.2,4.3,4.3,0,0,1-4-2.9L345,10A16.12,16.12,0,0,0,329.6-1.3H258.4A16,16,0,0,0,243.2,9.6L202.4,130.4a4.08,4.08,0,0,1-5.3,2.6,4.3,4.3,0,0,1-2.9-4V14.8A16.09,16.09,0,0,0,178.1-1.3H167.7a16.09,16.09,0,0,0-16.1,16.1V57.1a16,16,0,0,1-16.22,16.12,15.69,15.69,0,0,1-13-6.82L79.2,5.5A15.94,15.94,0,0,0,66.1-1.3h-51A16.09,16.09,0,0,0-1,14.8V183a16.09,16.09,0,0,0,16.1,16.1H25.5A16.09,16.09,0,0,0,41.6,183V138.9a16,16,0,0,1,16.24-16.12A15.57,15.57,0,0,1,70.7,129.5l45.6,63a16.34,16.34,0,0,0,13,6.7h89.3a16.17,16.17,0,0,0,15.5-11.7l6.9-24.2,7.5-25.3,9.9-34.4a16.09,16.09,0,0,1,31.1.6l8.3,33.8,6.1,25.3,5.8,23.7a16.13,16.13,0,0,0,15.6,12.3H527.9c21,0,39.3-6.6,49.7-11.4a9,9,0,0,1,3.8-.84,8.64,8.64,0,0,1,7.5,4.24,16.25,16.25,0,0,0,13.9,8H751.4a16.05,16.05,0,0,0,15.5-11.8l6.8-24.2,7.5-25.3,9.9-34.4a16.09,16.09,0,0,1,31.1.6l8.2,33.8,6.1,25.3,5.8,23.7a16.13,16.13,0,0,0,15.6,12.3h56.8a16.09,16.09,0,0,0,16.1-16.1,11.89,11.89,0,0,0-.6-5L877.7,10A16.08,16.08,0,0,0,862.4-1.3Zm-376.5,86a16.09,16.09,0,0,1-16.1-16.1V45.9a16.09,16.09,0,0,1,16.1-16.1h1.7c13.3,0,24.5,3.2,24.5,27.2,0,23.4-14.1,27.7-24.5,27.7Zm0,82.6a16.09,16.09,0,0,1-16.1-16.1V125.9a16.09,16.09,0,0,1,16.1-16.1h4.9c12,0,22.6,7.7,22.6,28.5.1,21.8-9.8,29-22.6,29Z" transform="translate(1 1.3)"/></svg>