<?xml version="1.0" encoding="utf-8"?>
<!-- Generator: Adobe Illustrator 24.0.1, SVG Export Plug-In . SVG Version: 6.00 Build 0)  -->
<svg version="1.1" id="Layer_1" xmlns="http://www.w3.org/2000/svg" xmlns:xlink="http://www.w3.org/1999/xlink" x="0px" y="0px"
	 viewBox="0 0 932 200.5" style="enable-background:new 0 0 932 200.5;" xml:space="preserve">
<style type="text/css">
	.st0{fill:#FC4302;}
</style>
<g>
	<path class="st0" d="M864.3,2c6.2,0,11.6,4,13.4,9.9l52.6,168.2c0.5,1.6,0.7,2.9,0.5,4.2l0,0.1v0.1c0,7.8-6.3,14.1-14.1,14.1h-56.9
		c-6.5,0-12.1-4.4-13.7-10.8l-5.8-23.7l-6.1-25.3L826,105c-2.3-9.5-10.5-13.8-17.6-13.8c-8.3,0-15.1,5.2-17.4,13.1l-9.9,34.4
		l-7.5,25.3l-6.8,24.2c-1.7,6.1-7.2,10.3-13.6,10.3H604.4c-5,0-9.6-2.7-12.2-7c-1.9-3.3-5.4-5.2-9.2-5.2c-1.6,0-3.2,0.3-4.6,1
		c-9.1,4.2-27.5,11.2-48.9,11.2H405.5h-22h-56.9c-6.5,0-12.1-4.4-13.7-10.8l-5.8-23.7l-6.1-25.3l-8.3-33.8
		c-2.3-9.5-10.5-13.8-17.6-13.8c-8.3,0-15.1,5.1-17.4,13.1l-9.9,34.4l-7.5,25.3l-6.9,24.2c-1.8,6-7.3,10.3-13.6,10.3h-17h-23.6
		l-48.7,0c-4.6-0.1-8.9-2.3-11.4-5.9l-45.6-63c-3.4-4.8-8.7-7.6-14.5-7.6c-11.4,0-18.3,9.2-18.3,18.1v44.1c0,7.8-6.3,14.1-14.1,14.1
		H16.1c-7.8,0-14.1-6.3-14.1-14.1V16.1C2,8.3,8.3,2,16.1,2h51.1c4.6,0,8.9,2.2,11.5,6l43.2,60.9c3.5,4.9,8.8,7.7,14.6,7.7
		c9,0,18.2-6.8,18.2-18.1V16.1c0-7.8,6.3-14.1,14.1-14.1h10.4c7.8,0,14.1,6.3,14.1,14.1v114.2c0,2.6,1.7,5,4.2,5.9
		c0.7,0.2,1.4,0.4,2.1,0.4c2.7,0,5-1.7,5.8-4.2l40.8-120.8c1.9-5.7,7.3-9.5,13.3-9.5H331c6.2,0,11.7,4,13.5,9.9l34.8,111.6l0,0l0,0
		c0.9,2.5,3.3,4.2,5.9,4.2c3.4,0,6.2-2.8,6.2-6.2V16.1c0-7.8,6.3-14.1,14.1-14.1h116.6c27.7,0,48.9,18.8,50.5,44.6
		c0.9,15.4-1.8,26.6-8.5,34.5l0,0l0,0c-0.4,0.5-0.9,1.1-1.3,1.8c-5.3,8.3-2.9,19.4,5.3,24.6c4.3,2.8,8.1,6.3,11.4,10.3
		c1.2,1.5,3,2.3,4.9,2.3c3.4,0,6.2-2.8,6.2-6.2V16.1c0-7.8,6.3-14.1,14.1-14.1h49.7c7.8,0,14.1,6.3,14.1,14.1v125.1
		c0,10,8.1,18.1,18.1,18.1H716c8.1,0,15.4-5.2,18.1-13l45.6-134.8C781.7,5.8,787,2,793.1,2H864.3 M487.4,88h1.7
		c9.9,0,26.5-3.9,26.5-29.7c0-25.7-12.7-29.2-26.5-29.2h-1.7c-10,0-18.1,8.1-18.1,18.1v22.7C469.3,79.9,477.4,88,487.4,88
		 M487.4,170.6h4.9c7.1,0,12.8-2.1,16.9-6.2c5.2-5.2,7.7-13.5,7.7-24.8c0-10.2-2.5-18.1-7.3-23.4c-4.3-4.6-10.2-7.1-17.3-7.1h-4.9
		c-10,0-18.1,8.1-18.1,18.1v25.3C469.3,162.5,477.4,170.6,487.4,170.6 M864.3,0h-71.3c-6.9,0-13,4.4-15.2,10.9l-45.6,134.8
		c-2.4,6.9-8.9,11.6-16.2,11.6h-29.5c-8.9,0-16.1-7.2-16.1-16.1V16.1c0-8.9-7.2-16.1-16.1-16.1h-49.7c-8.9,0-16.1,7.2-16.1,16.1V114
		c0,2.3-1.9,4.2-4.2,4.2c-1.3,0-2.5-0.6-3.3-1.6c-3.4-4.2-7.4-7.8-11.8-10.7c-7.3-4.7-9.4-14.5-4.7-21.9c0.4-0.6,0.8-1.1,1.2-1.6
		c7.5-8.8,9.9-21.2,9-35.9C573,19.7,551.1,0,522.2,0H405.5c-8.8,0-16.1,7.2-16.1,16.1v105.5c0,2.3-1.9,4.2-4.2,4.2
		c-1.8,0-3.4-1.2-4-2.9L346.4,11.3C344.3,4.6,338.1,0,331,0h-71.3c-6.9,0-13,4.4-15.2,10.9l-40.8,120.8c-0.6,1.7-2.2,2.8-3.9,2.8
		c-0.5,0-0.9-0.1-1.4-0.2c-1.7-0.6-2.9-2.2-2.9-4V16.1c0-8.9-7.2-16.1-16.1-16.1h-10.4c-8.9,0-16.1,7.2-16.1,16.1v42.3
		c0,9.9-8,16.1-16.2,16.1c-4.8,0-9.6-2.1-13-6.8L80.3,6.8C77.3,2.5,72.4,0,67.2,0H16.1C7.2,0,0,7.2,0,16.1v168.2
		c0,8.9,7.2,16.1,16.1,16.1h10.4c8.9,0,16.1-7.2,16.1-16.1v-44.1c0-9.9,8-16.1,16.3-16.1c4.7,0,9.5,2.1,12.9,6.7l45.6,63
		c3,4.2,7.9,6.6,13,6.7h48.8h23.6h17c7.2,0,13.5-4.8,15.5-11.7l6.9-24.2l7.5-25.3l9.9-34.4c2.3-7.8,8.9-11.7,15.5-11.7
		c6.8,0,13.7,4.1,15.7,12.3l8.3,33.8l6.1,25.3l5.8,23.7c1.8,7.2,8.2,12.3,15.6,12.3h56.9h22h123.9c21,0,39.3-6.6,49.8-11.4
		c1.2-0.6,2.5-0.8,3.8-0.8c3,0,5.9,1.5,7.5,4.2c2.9,4.9,8.2,8,13.9,8h148.8c7.2,0,13.6-4.8,15.5-11.8l6.8-24.2l7.5-25.3l9.9-34.4
		c2.2-7.8,8.8-11.7,15.4-11.7c6.9,0,13.7,4.1,15.7,12.3l8.2,33.8l6.1,25.3l5.8,23.7c1.8,7.2,8.2,12.3,15.6,12.3h56.9
		c8.9,0,16.1-7.2,16.1-16.1c0.2-1.8-0.1-3.4-0.6-5L879.6,11.3C877.5,4.6,871.3,0,864.3,0L864.3,0z M487.4,86
		c-8.9,0-16.1-7.2-16.1-16.1V47.2c0-8.9,7.2-16.1,16.1-16.1h1.7c13.3,0,24.5,3.2,24.5,27.2c0,23.4-14.1,27.7-24.5,27.7H487.4
		L487.4,86z M487.4,168.6c-8.9,0-16.1-7.2-16.1-16.1v-25.3c0-8.9,7.2-16.1,16.1-16.1h4.9c12,0,22.6,7.7,22.6,28.5
		c0.1,21.8-9.8,29-22.6,29H487.4L487.4,168.6z"/>
</g>
</svg>
