<?xml version="1.0" encoding="utf-8"?>
<!-- Generator: Adobe Illustrator 24.0.1, SVG Export Plug-In . SVG Version: 6.00 Build 0)  -->
<svg version="1.1" id="Layer_1" xmlns="http://www.w3.org/2000/svg" xmlns:xlink="http://www.w3.org/1999/xlink" x="0px" y="0px"
	 viewBox="0 0 932 200.5" style="enable-background:new 0 0 932 200.5;" xml:space="preserve">
<style type="text/css">
	.st0{fill:#FC4302;}
	.st1{fill:#FFFFFF;}
</style>
<polygon class="st0" points="932,200.5 466,200.5 0,200.5 0,0 470.8,0 932,0 "/>
<g>
	<g>
		<g>
			<path class="st0" d="M653.5,3c7.2,0,13.1,5.9,13.1,13.1l0,125.2c0,10.5,8.6,19.1,19.1,19.1H715h0.1c8.6,0,16.3-5.5,19-13.7
				L779.8,12c1.8-5.3,6.8-8.9,12.4-8.9h71.2c5.8,0,10.8,3.7,12.5,9.2l52.5,168.2c1.3,4,0.5,8.3-1.9,11.7c-2.5,3.4-6.3,5.3-10.6,5.3
				h-56.8c-6.1,0-11.3-4.1-12.7-10l-5.8-23.7l-6.1-25.3l-8.3-33.8c-2.5-10.1-11.1-14.6-18.6-14.6c-8.7,0-15.9,5.4-18.3,13.8
				l-9.9,34.4l-7.5,25.3l-6.8,24.2c-1.6,5.6-6.8,9.5-12.6,9.5H603.9c-4.6,0-9-2.5-11.3-6.5c-2.1-3.5-6-5.7-10.2-5.7
				c-1.7,0-3.4,0.4-5,1.1c-11.1,5.1-28.6,11.1-48.5,11.1H325.9c-5.8-0.2-10.9-4.3-12.3-10l-5.8-23.7l-6.1-25.3l-8.3-33.8
				c-2.5-10.1-11.1-14.6-18.6-14.6c-8.7,0-15.9,5.4-18.3,13.8l-9.9,34.4l-7.5,25.3l-6.8,24.2c-1.5,5.5-6.4,9.3-12.1,9.5h-89.8
				c-4.2,0-8.2-2-10.6-5.4l-45.6-63c-3.6-5-9.2-7.9-15.3-7.9c-12.1,0-19.3,9.7-19.3,19.1v44.1c0,7.2-5.9,13.1-13.1,13.1H16.1
				c-7.2,0-13.1-5.9-13.1-13.1L3,16.2c0-3.5,1.4-6.8,3.8-9.3c2.5-2.5,5.8-3.8,9.3-3.8h50.9c4.2,0,8.2,2.1,10.7,5.5l43.2,60.9
				c3.6,5.1,9.3,8.1,15.4,8.1c4.9,0,9.7-1.9,13.2-5.1c3.9-3.6,6-8.5,6-14l0-42.3c0-7.2,5.9-13.1,13.1-13.1h10.4
				c7.2,0,13.1,5.9,13.1,13.1l0,114.3c0,4.5,3.7,7.2,7.3,7.2c3.1,0,5.8-1.9,6.8-4.9L247,12c1.8-5.3,6.8-8.9,12.4-8.9h71.2
				c5.8,0,10.8,3.7,12.5,9.2L378,123.9c1,3.1,3.6,5.1,6.8,5.1c3.6,0,7.3-2.7,7.3-7.2l0-105.6c0-7.2,5.9-13.1,13.1-13.1h116.5
				c27.1,0,47.9,18.4,49.4,43.7c0.9,15.1-1.8,26.1-8.3,33.7c-3.5,4.1-5,9.4-4.3,14.7c0.8,5.4,3.8,10.2,8.3,13.2
				c4.3,2.9,8.1,6.3,11.2,10.1c1.4,1.7,3.4,2.7,5.6,2.7c1.8,0,3.6-0.7,5-1.9c1.5-1.4,2.3-3.2,2.3-5.3l0-97.9c0-3.5,1.4-6.8,3.8-9.3
				c2.5-2.5,5.8-3.8,9.3-3.8H653.5 M486.9,89.1h1.7c10.3,0,27.5-4,27.5-30.7c0-12-2.7-20.1-8.3-24.9c-5.5-4.7-12.8-5.3-19.2-5.3
				h-1.7c-10.5,0-19.1,8.6-19.1,19.1V70C467.8,80.5,476.4,89.1,486.9,89.1 M486.9,171.6h4.9c11.7,0,25.6-5.6,25.6-32
				c0-19.7-9.6-31.5-25.6-31.5h-4.9c-10.5,0-19.1,8.6-19.1,19.1v25.3C467.8,163,476.4,171.6,486.9,171.6 M653.5,0h-49.6
				c-8.9,0-16.1,7.2-16.1,16.1l0,97.9c0,2.6-2.1,4.2-4.2,4.2c-1.2,0-2.4-0.5-3.3-1.6c-3.3-4.1-7.3-7.7-11.8-10.7
				c-7.9-5.3-9.6-16.2-3.4-23.5c7.5-8.8,9.9-21.2,9-35.9c-1.6-26.8-23.5-46.5-52.4-46.5H405.1c-8.9,0-16.1,7.2-16.1,16.1l0,105.6
				c0,2.7-2.1,4.2-4.3,4.2c-1.7,0-3.3-0.9-4-3L346,11.4c-2.1-6.7-8.3-11.3-15.4-11.3h-71.2c-6.9,0-13,4.4-15.3,10.9l-40.8,120.8
				c-0.7,2-2.3,2.9-3.9,2.9c-2.1,0-4.3-1.5-4.3-4.2l0-114.3c0-8.9-7.2-16.1-16.1-16.1h-10.4c-8.9,0-16.1,7.2-16.1,16.1l0,42.3
				c0,9.9-8,16.1-16.3,16.1c-4.8,0-9.6-2.1-13-6.8L80.2,6.9c-3-4.3-7.9-6.8-13.1-6.8H16.1C7.2,0.1,0,7.3,0,16.2l0,168.2
				c0,8.9,7.2,16.1,16.1,16.1h10.4c8.9,0,16.1-7.2,16.1-16.1v-44.1c0-9.9,8-16.1,16.3-16.1c4.7,0,9.5,2.1,12.9,6.7l45.6,63
				c3,4.2,7.9,6.7,13,6.7h89.9c7-0.2,13.1-4.9,15-11.7l6.8-24.2l7.5-25.3l9.9-34.4c2.2-7.8,8.8-11.7,15.5-11.7
				c6.8,0,13.7,4.1,15.7,12.3l8.3,33.8l6.1,25.3l5.8,23.7c1.7,7,7.9,12,15.1,12.3h203.1c21,0,39.3-6.6,49.7-11.4
				c1.2-0.6,2.5-0.8,3.8-0.8c3,0,6,1.5,7.6,4.2c2.8,4.8,8,8,13.9,8h148.5c7.2,0,13.5-4.8,15.5-11.7l6.8-24.2l7.5-25.3l9.9-34.4
				c2.2-7.8,8.8-11.7,15.5-11.7c6.8,0,13.7,4.1,15.7,12.3l8.3,33.8l6.1,25.3l5.8,23.7c1.8,7.2,8.2,12.3,15.6,12.3h56.8
				c10.9,0,18.6-10.5,15.4-20.9L878.7,11.4c-2.1-6.7-8.3-11.3-15.4-11.3h-71.2c-6.9,0-13,4.4-15.3,10.9l-45.6,134.8
				c-2.4,6.9-8.9,11.6-16.2,11.6H715h-29.3c-8.9,0-16.1-7.2-16.1-16.1l0-125.2C669.6,7.3,662.4,0,653.5,0L653.5,0z M486.9,86.1
				c-8.9,0-16.1-7.2-16.1-16.1V47.3c0-8.9,7.2-16.1,16.1-16.1h1.7c13.3,0,24.5,3.2,24.5,27.2c0,23.4-14.1,27.7-24.5,27.7H486.9
				L486.9,86.1z M486.9,168.6c-8.9,0-16.1-7.2-16.1-16.1v-25.3c0-8.9,7.2-16.1,16.1-16.1h4.9c12,0,22.6,7.7,22.6,28.5
				c0,21.8-9.9,29-22.6,29H486.9L486.9,168.6z"/>
		</g>
	</g>
	<g>
		<path class="st1" d="M486.9,86.1h1.7c10.4,0,24.5-4.3,24.5-27.7c0-24-11.2-27.2-24.5-27.2h-1.7c-8.9,0-16.1,7.2-16.1,16.1V70
			C470.8,78.8,478,86.1,486.9,86.1z"/>
		<path class="st1" d="M491.8,111.1h-4.9c-8.9,0-16.1,7.2-16.1,16.1v25.3c0,8.9,7.2,16.1,16.1,16.1h4.9c12.8,0,22.6-7.2,22.6-29
			C514.5,118.8,503.8,111.1,491.8,111.1z"/>
		<path class="st1" d="M0,0v200.5h932V0H0z M915.9,200.5h-56.8c-7.4,0-13.9-5.1-15.6-12.3l-5.8-23.7l-6.1-25.3l-8.3-33.8
			c-3.9-16-26.6-16.5-31.1-0.6l-9.9,34.4l-7.5,25.3l-6.8,24.2c-2,6.9-8.3,11.7-15.5,11.7H603.9c-5.9,0-11.1-3.2-13.9-8
			c-2.3-3.9-7.3-5.3-11.4-3.4c-10.4,4.7-28.7,11.4-49.7,11.4H325.8c-7.2-0.2-13.4-5.2-15.1-12.3l-5.8-23.7l-6.1-25.3l-8.3-33.8
			c-3.9-16-26.6-16.5-31.1-0.6l-9.9,34.4l-7.5,25.3l-6.8,24.2c-1.9,6.8-8,11.5-15,11.7h-89.9c-5.2,0-10-2.5-13-6.7l-45.6-63
			c-9.2-12.6-29.1-6.2-29.1,9.4v44.1c0,8.9-7.2,16.1-16.1,16.1H16.1c-8.9,0-16.1-7.2-16.1-16.1L0,16.2C0,7.3,7.2,0.1,16.1,0.1h50.9
			c5.2,0,10.1,2.5,13.1,6.8l43.2,60.9c9.1,12.8,29.2,6.4,29.2-9.3l0-42.3c0-8.9,7.2-16.1,16.1-16.1h10.4c8.9,0,16.1,7.2,16.1,16.1
			l0,114.3c0,4.8,6.7,5.9,8.2,1.3L244.2,11c2.2-6.5,8.3-10.9,15.3-10.9h71.2c7,0,13.3,4.6,15.4,11.3L380.8,123
			c1.4,4.6,8.2,3.6,8.2-1.3l0-105.6c0-8.9,7.2-16.1,16.1-16.1h116.5c28.8,0,50.8,19.7,52.4,46.5c0.9,14.7-1.6,27.1-9,35.9
			c-6.2,7.3-4.5,18.2,3.4,23.5c4.5,3,8.5,6.6,11.8,10.7c2.5,3.1,7.5,1.4,7.5-2.6l0-97.9C587.8,7.3,595,0,603.9,0h49.6
			c8.9,0,16.1,7.2,16.1,16.1l0,125.2c0,8.9,7.2,16.1,16.1,16.1H715h0.1c7.3,0,13.9-4.7,16.2-11.6L776.9,11
			c2.2-6.5,8.3-10.9,15.3-10.9h71.2c7,0,13.3,4.6,15.4,11.3l52.5,168.2C934.5,189.9,926.7,200.5,915.9,200.5z"/>
	</g>
</g>
</svg>
