<svg id="Layer_1" data-name="Layer 1" xmlns="http://www.w3.org/2000/svg" viewBox="0 0 1000 600"><defs><style>.cls-1{fill:#fc4302;}</style></defs><title>nabla</title><path class="cls-1" d="M965.24,403.33,912.71,235.16a16.1,16.1,0,0,0-15.36-11.3H826.19a16.11,16.11,0,0,0-15.25,10.95l-45.6,134.78a17.1,17.1,0,0,1-16.21,11.62H719.68a16.09,16.09,0,0,1-16.09-16.09V239.92a16.1,16.1,0,0,0-16.1-16.1H637.92a16.1,16.1,0,0,0-16.1,16.1v97.91a4.21,4.21,0,0,1-7.51,2.6,52.57,52.57,0,0,0-11.84-10.73A15.8,15.8,0,0,1,599,306.25c7.47-8.77,9.92-21.21,9-35.87-1.63-26.83-23.54-46.54-52.39-46.54H439.15a16.1,16.1,0,0,0-16.1,16.1V345.49a4.21,4.21,0,0,1-8.22,1.26L380,235.16a16.1,16.1,0,0,0-15.36-11.3H293.45a16.1,16.1,0,0,0-15.25,10.95L237.43,355.58a4.21,4.21,0,0,1-8.2-1.35V239.94a16.1,16.1,0,0,0-16.1-16.1H202.72a16.1,16.1,0,0,0-16.1,16.1v42.27c0,15.68-20.15,22.11-29.23,9.31l-43.2-60.9a16.11,16.11,0,0,0-13.13-6.78H50.12A16.1,16.1,0,0,0,34,239.94V408.1a16.1,16.1,0,0,0,16.1,16.1H60.53a16.1,16.1,0,0,0,16.1-16.1V364c0-15.61,20-22.08,29.14-9.44l45.58,63a16.11,16.11,0,0,0,13,6.66h48.74l23.55,0h17a16.08,16.08,0,0,0,15.49-11.73L276,388.27l7.45-25.3,9.88-34.41c4.56-15.86,27.18-15.41,31.11.61l8.28,33.8,6.13,25.3L344.68,412a16.1,16.1,0,0,0,15.63,12.27h56.82l22,0H562.94c21,0,39.3-6.63,49.72-11.37A8.9,8.9,0,0,1,624,416.25a16.1,16.1,0,0,0,13.9,8H786.47A16.08,16.08,0,0,0,802,412.49l6.82-24.22,7.46-25.3,9.88-34.41c4.55-15.86,27.17-15.41,31.1.61L865.5,363l6.13,25.3L877.42,412a16.1,16.1,0,0,0,15.63,12.27h56.82A16.09,16.09,0,0,0,965.24,403.33ZM504.81,271.06a16.1,16.1,0,0,1,16.1-16.1h1.74c13.32,0,24.5,3.19,24.5,27.16,0,23.44-14.11,27.7-24.5,27.7h-1.74a16.1,16.1,0,0,1-16.1-16.1Zm21,121.32h-4.94a16.1,16.1,0,0,1-16.1-16.1V351a16.1,16.1,0,0,1,16.1-16.1h4.94c12,0,22.64,7.73,22.64,28.5C548.49,385.19,538.63,392.38,525.85,392.38Z"/></svg>